<?xml version="1.0" standalone="no"?>
<!DOCTYPE svg PUBLIC "-//W3C//DTD SVG 20010904//EN"
 "http://www.w3.org/TR/2001/REC-SVG-20010904/DTD/svg10.dtd">
<svg version="1.0" xmlns="http://www.w3.org/2000/svg"
 width="512.000000pt" height="512.000000pt" viewBox="0 0 512.000000 512.000000"
 preserveAspectRatio="xMidYMid meet">
<metadata>
Created by potrace 1.14, written by Peter Selinger 2001-2017
</metadata>
<g transform="translate(0.000000,512.000000) scale(0.100000,-0.100000)"
fill="#000000" stroke="none">
<path d="M949 4564 c-260 -217 -480 -401 -488 -409 -12 -12 -10 -22 16 -72 64
-123 104 -256 128 -423 12 -86 15 -251 15 -906 0 -798 4 -928 36 -1082 63
-308 243 -587 484 -749 101 -68 121 -77 375 -178 468 -186 767 -347 960 -516
88 -78 79 -75 127 -31 69 63 206 164 298 219 174 105 490 250 820 377 181 70
307 153 431 284 124 130 204 265 264 445 69 209 68 185 76 1192 7 969 7 961
59 1151 11 43 41 121 66 173 24 51 44 98 44 102 0 5 -120 109 -267 231 -148
123 -277 231 -288 240 -11 9 -109 91 -218 182 l-198 166 -1133 0 -1132 0 -475
-396z m3187 -35 c258 -215 470 -393 472 -394 2 -2 -10 -29 -26 -61 -69 -137
-116 -322 -128 -497 -3 -50 -7 -461 -8 -912 -2 -724 -4 -831 -19 -915 -49
-271 -156 -488 -321 -655 -133 -134 -227 -191 -476 -289 -511 -200 -799 -353
-1021 -543 l-51 -43 -61 50 c-86 70 -295 209 -397 263 -127 68 -379 180 -594
264 -207 81 -278 117 -375 188 -218 160 -363 395 -433 700 -20 86 -22 126 -28
1005 -6 795 -9 927 -24 1010 -23 132 -52 229 -98 338 -34 80 -38 96 -27 107 8
8 219 185 469 394 l455 381 1111 0 1110 0 470 -391z"/>
<path d="M1040 4514 c-234 -195 -436 -365 -449 -378 l-23 -23 35 -89 c40 -100
69 -199 93 -324 15 -74 18 -204 24 -995 6 -887 7 -912 28 -1007 53 -234 139
-403 281 -552 132 -137 218 -190 481 -294 469 -186 747 -331 965 -502 33 -25
66 -50 72 -54 8 -4 45 18 95 57 228 178 495 315 995 513 226 89 313 143 438
271 143 146 235 326 291 566 15 64 18 176 24 977 6 768 9 919 23 1000 22 131
52 240 93 339 19 46 34 89 32 96 -2 7 -203 180 -448 384 l-445 371 -1090 -1
-1090 0 -425 -355z m1570 -529 l0 -155 -50 0 -50 0 0 103 0 103 48 51 c26 28
48 52 50 52 1 1 2 -69 2 -154z m0 -385 l0 -190 -50 0 -50 0 0 190 0 190 50 0
50 0 0 -190z m-1188 -172 l3 -73 238 0 239 0 2 52 c2 72 23 93 93 93 73 0 93
-21 93 -95 l0 -55 190 0 c183 0 190 -1 190 -20 0 -20 -7 -20 -855 -20 -848 0
-855 0 -855 20 0 19 7 20 240 20 l240 0 0 75 0 75 90 0 89 0 3 -72z m1767 46
c15 -19 21 -41 21 -76 l0 -48 238 2 237 3 3 73 3 72 89 0 89 0 3 -72 3 -73
238 -3 c229 -2 237 -3 237 -22 0 -20 -9 -20 -855 -20 -848 0 -855 0 -855 20 0
19 7 20 190 20 l190 0 0 49 c0 73 26 101 95 101 46 0 56 -4 74 -26z m-579
-284 l0 -190 -50 0 -50 0 0 190 0 190 50 0 50 0 0 -190z m-1231 -29 c90 -22
198 -44 240 -47 89 -8 219 8 311 37 78 24 236 35 305 21 28 -5 92 -20 143 -33
80 -21 92 -27 92 -45 0 -20 -3 -21 -45 -13 -25 5 -77 18 -117 31 -110 34 -241
31 -378 -7 -96 -27 -118 -30 -255 -29 -143 0 -157 2 -314 43 -191 49 -277 54
-379 22 -67 -20 -144 -65 -182 -106 -29 -31 -40 -32 -40 -1 0 51 129 134 251
161 91 21 179 13 368 -34z m2779 18 c35 -12 92 -40 126 -63 51 -36 62 -47 64
-75 l3 -33 -58 45 c-157 122 -268 135 -540 66 -161 -41 -174 -43 -318 -43
-136 -1 -159 2 -250 28 -132 39 -262 41 -380 7 -44 -12 -99 -26 -122 -30 -40
-8 -43 -7 -43 13 0 18 12 24 93 45 50 13 115 28 142 33 74 15 226 3 329 -26
175 -50 303 -45 551 19 72 19 141 36 155 39 50 9 185 -4 248 -25z m-2803 -190
c131 -33 183 -41 290 -46 122 -5 138 -4 258 26 198 48 304 43 555 -25 6 -2 12
-13 12 -25 0 -19 -4 -20 -40 -14 -22 4 -68 16 -102 27 -37 11 -105 22 -163 25
-88 5 -116 2 -230 -25 -231 -55 -317 -52 -595 17 -89 23 -184 41 -211 41 -111
0 -222 -40 -312 -114 l-57 -46 0 30 c0 52 131 133 265 163 72 16 177 6 330
-34z m2770 26 c66 -18 136 -53 189 -97 27 -22 36 -37 36 -61 l0 -31 -32 31
c-82 79 -219 133 -336 133 -27 0 -120 -18 -208 -40 -263 -67 -416 -72 -589
-20 -40 12 -113 24 -171 27 -91 5 -112 3 -222 -26 -143 -37 -152 -37 -152 -11
0 13 9 22 28 26 15 3 68 17 117 30 129 34 262 33 398 -3 91 -25 119 -28 257
-27 149 1 161 2 310 42 174 46 273 53 375 27z m-1517 -236 l2 -187 -33 -6
c-68 -13 -67 -15 -67 196 l0 189 48 -3 47 -3 3 -186z m-1230 -11 c156 -40 176
-43 302 -42 119 0 147 3 235 28 144 42 266 42 432 1 112 -27 123 -32 123 -52
0 -13 -2 -23 -4 -23 -11 0 -135 31 -180 45 -86 26 -235 20 -373 -16 -111 -29
-126 -30 -258 -26 -123 4 -160 9 -302 46 -112 28 -182 41 -230 41 -119 0 -223
-39 -311 -116 l-52 -46 0 31 c0 57 138 142 270 168 90 17 155 10 348 -39z
m2704 38 c90 -18 147 -42 215 -92 45 -34 53 -44 53 -73 l0 -34 -43 40 c-59 54
-121 89 -192 107 -100 27 -179 21 -358 -26 -158 -42 -166 -43 -322 -43 -144 0
-169 3 -255 28 -128 37 -270 38 -386 3 -43 -13 -96 -26 -116 -30 -36 -7 -38
-5 -38 19 0 19 5 25 21 25 11 0 62 12 112 27 131 38 282 38 417 -1 115 -32
256 -43 360 -27 41 6 136 27 210 46 196 49 217 51 322 31z m-2727 -181 c13 -4
11 -11 -10 -45 -14 -22 -25 -42 -25 -45 0 -3 103 -5 228 -5 l229 0 13 24 c8
15 27 28 51 34 42 11 46 7 24 -22 -8 -11 -15 -23 -15 -28 0 -4 140 -8 310 -8
l310 0 0 -30 0 -30 -332 -2 -333 -3 -107 -175 c-59 -96 -107 -178 -107 -182
-1 -5 35 -8 78 -8 78 0 91 -6 91 -41 0 -5 -46 -9 -103 -9 l-103 0 -115 -190
c-63 -104 -117 -190 -120 -190 -3 0 -14 6 -24 14 -18 13 -14 22 83 184 56 94
102 173 102 176 0 4 -107 5 -237 4 l-238 -3 -104 -164 c-83 -129 -106 -159
-112 -145 -16 41 -6 67 66 180 41 65 75 121 75 126 0 4 -38 8 -85 8 -84 0 -85
0 -85 25 0 24 1 24 107 27 l108 3 112 175 c61 96 112 178 112 183 1 4 -98 7
-219 7 -232 0 -231 0 -214 44 5 14 36 16 243 16 l236 0 33 55 c21 35 38 53 47
50 8 -3 22 -7 30 -10z m2479 -40 l36 -55 237 -2 238 -3 3 -27 3 -28 -221 -2
-221 -3 116 -182 117 -183 104 0 104 0 0 -25 c0 -25 -1 -25 -85 -25 -47 0 -85
-3 -85 -7 0 -3 34 -59 75 -124 72 -114 87 -155 67 -186 -5 -8 -46 49 -112 152
l-105 165 -237 0 c-131 0 -238 -2 -238 -4 0 -3 47 -83 104 -178 102 -168 104
-173 83 -185 -12 -6 -25 -9 -29 -7 -4 3 -57 88 -118 189 l-111 185 -103 0
-103 0 5 25 c4 24 7 25 83 25 44 0 79 3 79 7 0 3 -48 86 -107 185 l-108 178
-332 0 -333 0 0 30 0 30 310 0 c171 0 310 2 310 5 0 4 -7 19 -15 34 l-14 29
40 -11 c27 -6 44 -18 51 -33 l11 -24 234 0 234 0 -26 37 c-31 46 -31 60 -2 66
12 2 23 5 24 6 1 0 18 -24 37 -54z m-1224 -225 l0 -190 -50 0 -50 0 0 190 0
190 50 0 50 0 0 -190z m-652 -79 c8 -4 12 -19 10 -32 -3 -21 -8 -24 -45 -24
-46 0 -93 -34 -93 -67 0 -10 -5 -18 -10 -18 -13 0 -2 79 14 99 31 39 95 61
124 42z m1298 -17 c31 -21 44 -52 44 -102 l-1 -37 -13 30 c-21 48 -53 70 -100
70 -37 0 -41 3 -44 27 -2 19 2 28 15 31 27 8 70 -1 99 -19z m-646 -314 l0
-190 -50 0 -50 0 0 190 0 190 50 0 50 0 0 -190z m-140 125 l0 -25 -290 0 -290
0 0 25 0 25 290 0 290 0 0 -25z m750 0 l0 -25 -290 0 -290 0 0 25 0 25 290 0
290 0 0 -25z m47 -107 c-3 -7 -5 -2 -5 12 0 14 2 19 5 13 2 -7 2 -19 0 -25z
m-1413 6 c3 -8 2 -12 -4 -9 -6 3 -10 10 -10 16 0 14 7 11 14 -7z m31 -74 c14
-28 28 -71 32 -96 3 -27 19 -67 37 -93 17 -26 38 -60 46 -76 8 -16 33 -40 54
-54 21 -14 55 -42 75 -61 20 -19 47 -43 61 -52 31 -22 107 -23 174 -3 49 15
76 9 62 -13 -8 -13 -114 -49 -183 -61 -86 -17 -151 13 -115 52 16 18 15 20
-11 43 -15 12 -44 26 -65 29 -20 4 -47 10 -60 15 -19 8 -21 12 -10 29 10 17 9
23 -7 42 -11 11 -38 30 -60 41 -37 20 -38 21 -17 29 12 5 22 14 22 21 0 7 -30
40 -66 74 -70 65 -77 88 -28 89 28 0 29 2 29 48 0 26 1 47 2 47 2 0 14 -23 28
-50z m1371 3 c-1 -47 0 -48 29 -48 55 -1 45 -29 -33 -91 -18 -15 -39 -39 -48
-55 -14 -28 -14 -30 7 -37 20 -8 18 -10 -23 -35 -63 -36 -75 -53 -59 -79 16
-25 2 -38 -42 -38 -35 0 -88 -22 -106 -44 -12 -14 -11 -19 4 -36 22 -24 14
-37 -31 -49 -42 -12 -119 0 -203 31 -67 24 -79 34 -64 49 8 8 24 7 59 -5 94
-32 193 -13 223 43 6 10 33 33 60 49 27 17 56 41 65 54 69 98 89 136 100 192
11 52 49 146 59 146 2 0 3 -21 3 -47z m-951 -19 c84 -12 92 -16 123 -50 33
-39 41 -71 20 -92 -21 -21 -28 -13 -28 32 0 37 -4 45 -22 50 -61 16 -98 -11
-98 -72 0 -43 42 -102 91 -127 16 -9 29 -22 29 -31 0 -23 -83 -56 -133 -52
l-42 3 38 17 c78 36 58 73 -40 73 -44 0 -68 4 -70 13 -3 8 6 12 29 12 37 0 58
15 58 41 0 22 -20 29 -81 29 -53 0 -93 15 -84 31 4 5 25 9 48 9 49 0 87 22 87
50 0 21 -34 45 -50 35 -15 -9 -85 13 -104 33 -16 18 -14 19 61 15 43 -3 119
-11 168 -19z m745 18 c0 -16 -62 -43 -106 -46 -102 -6 -76 -86 28 -86 27 0 48
-4 48 -10 0 -16 -37 -30 -82 -30 -60 0 -88 -10 -88 -29 0 -26 21 -41 58 -41
23 0 32 -4 29 -12 -2 -9 -26 -13 -70 -13 -36 0 -71 -5 -77 -11 -18 -18 5 -51
40 -59 44 -10 37 -25 -12 -25 -45 0 -128 32 -128 49 0 5 12 19 28 30 79 59
107 111 89 164 -12 36 -39 49 -82 41 -34 -6 -35 -8 -35 -50 0 -24 -4 -44 -9
-44 -18 0 -33 30 -27 55 8 32 58 83 88 89 44 9 183 27 233 30 28 1 56 3 63 4
6 1 12 -2 12 -6z m-442 -364 l2 -187 -35 -7 c-66 -12 -65 -15 -65 196 l0 191
48 -3 47 -3 3 -187z m-1080 -13 c54 -79 186 -215 271 -278 147 -110 306 -183
485 -225 95 -22 134 -25 271 -25 137 0 176 3 271 25 327 76 578 249 790 543
l20 28 57 -34 c57 -34 57 -34 57 -83 0 -54 5 -53 -92 -25 -64 18 -77 5 -49
-47 11 -22 29 -50 41 -64 16 -20 22 -22 29 -11 5 8 7 20 4 28 -6 16 16 45 29
37 5 -3 15 0 23 6 13 10 15 8 15 -15 0 -20 -21 -52 -72 -113 -300 -353 -789
-554 -1243 -511 -375 35 -726 208 -966 474 -114 127 -109 118 -109 204 0 61 4
82 16 92 24 20 87 57 99 58 6 0 29 -28 53 -64z m-393 -119 c15 -23 14 -27 -29
-97 l-45 -74 82 -3 c71 -2 84 -6 99 -25 10 -12 18 -25 18 -29 0 -5 -45 -8 -99
-8 l-99 0 -30 38 -29 37 56 93 c30 50 57 92 58 92 1 0 10 -11 18 -24z m2900
-38 c21 -35 46 -77 57 -95 l19 -32 -32 -35 -31 -36 -99 0 -100 0 16 30 c15 30
16 30 101 30 l86 0 -19 33 c-77 131 -74 121 -57 145 8 12 16 22 18 22 2 0 20
-28 41 -62z m-1425 -198 l0 -140 -50 0 -50 0 0 140 0 140 50 0 50 0 0 -140z
m-140 30 l0 -30 -245 0 -245 0 -48 30 -47 30 293 0 292 0 0 -30z m750 26 c0
-2 -20 -16 -44 -30 l-45 -26 -245 0 -246 0 0 30 0 30 290 0 c160 0 290 -2 290
-4z"/>
<path d="M1168 2302 c-59 -92 -110 -175 -114 -185 -6 -16 10 -17 229 -17 l235
0 101 169 c55 93 104 176 107 185 6 14 -16 16 -222 16 l-229 0 -107 -168z"/>
<path d="M3380 2464 c0 -3 48 -86 107 -185 l108 -179 232 0 c152 0 233 4 233
10 0 6 -50 89 -112 185 l-111 175 -229 0 c-125 0 -228 -3 -228 -6z"/>
<path d="M1436 1474 c-9 -8 -16 -19 -16 -24 0 -5 -7 -7 -15 -4 -19 8 -29 -18
-21 -51 12 -47 78 -57 91 -14 4 10 10 17 15 14 17 -11 32 33 19 58 -21 40 -47
47 -73 21z m4 -70 c0 -8 -4 -14 -10 -14 -5 0 -10 9 -10 21 0 11 5 17 10 14 6
-3 10 -13 10 -21z"/>
<path d="M1498 1375 c-42 -38 -49 -72 -20 -98 28 -25 53 -20 95 19 32 29 36
38 26 50 -10 13 -17 11 -44 -16 -56 -54 -78 -30 -24 26 17 18 28 37 25 43 -11
17 -18 14 -58 -24z"/>
<path d="M3523 1356 l-38 -35 47 -47 c40 -41 49 -46 63 -34 14 12 14 15 0 30
-22 24 -19 27 23 26 43 -1 53 25 12 34 -14 3 -25 11 -25 19 0 7 -10 20 -22 28
-20 13 -24 12 -60 -21z m42 -26 c-3 -5 -11 -10 -16 -10 -6 0 -7 5 -4 10 3 6
11 10 16 10 6 0 7 -4 4 -10z"/>
<path d="M1576 1275 c-21 -26 -35 -52 -32 -60 7 -19 22 -19 30 0 9 26 28 16
25 -13 -3 -28 6 -52 21 -52 5 0 13 19 17 43 8 38 11 42 41 45 28 3 31 6 21 18
-6 8 -25 14 -42 14 -24 0 -28 3 -19 12 8 8 9 15 1 25 -17 19 -21 17 -63 -32z"/>
<path d="M3432 1274 c-39 -27 -24 -96 24 -114 18 -7 33 -6 54 5 34 18 44 43
31 78 -17 45 -68 60 -109 31z m63 -34 c19 -21 14 -50 -8 -50 -8 0 -22 9 -32
20 -15 16 -15 22 -5 35 16 20 23 19 45 -5z"/>
<path d="M1682 1185 c-28 -20 -52 -39 -52 -44 0 -13 28 -22 35 -11 10 16 46
-13 43 -35 -2 -11 4 -21 13 -23 23 -4 57 127 37 139 -19 12 -18 12 -76 -26z"/>
<path d="M3321 1183 c-53 -66 35 -150 97 -93 25 24 28 48 9 74 -13 18 -15 18
-40 2 -27 -18 -27 -52 1 -41 12 4 13 3 2 -10 -12 -14 -15 -14 -31 1 -28 26
-24 52 9 56 35 4 36 32 1 36 -19 2 -33 -5 -48 -25z"/>
<path d="M1780 1123 c-16 -27 -29 -54 -27 -62 3 -23 25 -24 32 -2 5 17 10 19
25 11 30 -16 58 -12 70 10 14 26 -1 55 -40 75 l-30 15 -30 -47z m61 -16 c-1
-12 -15 -9 -19 4 -3 6 1 10 8 8 6 -3 11 -8 11 -12z"/>
<path d="M3253 1143 c-10 -3 -9 -11 2 -34 l15 -29 -35 17 c-53 25 -63 7 -27
-53 15 -27 37 -51 47 -53 13 -2 16 1 11 13 -3 9 -9 23 -12 32 -6 14 -4 14 26
-1 52 -27 60 -6 25 60 -17 30 -32 55 -35 54 -3 0 -11 -3 -17 -6z"/>
<path d="M1881 1061 c-25 -53 -19 -84 19 -96 35 -11 61 5 81 52 30 71 4 91
-31 23 -11 -22 -27 -40 -35 -40 -21 0 -19 19 6 59 16 27 18 36 7 42 -21 14
-23 12 -47 -40z"/>
<path d="M3094 1056 c-3 -8 0 -24 6 -37 l12 -22 -30 22 c-27 19 -68 20 -60 2
2 -4 12 -30 22 -59 18 -48 33 -62 49 -46 3 3 2 17 -4 31 l-9 24 29 -17 c16 -9
36 -14 45 -11 14 6 13 13 -9 63 -14 31 -25 58 -25 60 0 11 -21 2 -26 -10z"/>
<path d="M2001 1018 c-33 -78 -35 -88 -12 -88 11 0 22 9 26 20 8 27 25 16 25
-16 0 -19 8 -29 36 -40 26 -11 40 -12 47 -5 18 18 44 13 50 -9 3 -11 12 -20
21 -20 18 0 20 20 10 94 -9 62 -32 61 -81 -5 l-38 -50 -5 28 c-4 20 -1 32 12
41 33 24 20 54 -35 77 l-38 15 -18 -42z m69 -18 c0 -5 -7 -10 -15 -10 -8 0
-15 5 -15 10 0 6 7 10 15 10 8 0 15 -4 15 -10z"/>
<path d="M2977 1014 c-3 -3 1 -24 9 -46 7 -22 11 -44 8 -49 -13 -21 -32 -6
-44 36 -7 25 -19 45 -26 45 -30 0 -2 -107 32 -123 30 -13 74 14 74 45 0 58
-31 113 -53 92z"/>
<path d="M2826 964 c-9 -8 -16 -25 -16 -37 0 -12 -3 -39 -6 -59 -6 -34 -5 -36
15 -31 11 3 21 11 21 18 0 19 39 26 49 8 6 -11 13 -13 24 -6 15 8 12 15 -18
60 -42 63 -49 68 -69 47z m29 -54 c3 -5 1 -10 -4 -10 -6 0 -11 5 -11 10 0 6 2
10 4 10 3 0 8 -4 11 -10z"/>
<path d="M2286 933 c-4 -21 -9 -50 -12 -65 -5 -23 -2 -28 15 -28 17 0 21 7 22
33 l1 32 15 -35 c14 -32 29 -49 44 -50 10 0 28 124 19 134 -14 14 -30 -3 -30
-32 -1 -26 -1 -26 -18 8 -24 49 -48 51 -56 3z"/>
<path d="M2421 924 c-26 -33 -26 -55 -2 -85 13 -16 29 -23 54 -23 43 0 45 1
53 42 6 31 6 32 -30 32 -38 0 -52 -24 -18 -34 10 -3 6 -4 -8 -3 -19 2 -26 8
-28 28 -3 29 23 48 42 29 12 -12 46 -13 46 -2 0 17 -37 42 -63 42 -16 0 -33
-10 -46 -26z"/>
<path d="M2582 937 c-14 -16 -42 -93 -42 -113 0 -19 26 -18 34 1 7 18 29 19
56 3 32 -20 34 -2 8 59 -26 61 -38 72 -56 50z m23 -57 c3 -5 1 -10 -4 -10 -6
0 -11 5 -11 10 0 6 2 10 4 10 3 0 8 -4 11 -10z"/>
<path d="M2665 923 c2 -16 7 -45 10 -65 5 -33 9 -38 33 -38 42 0 72 26 72 61
0 54 -15 69 -70 69 -48 0 -49 -1 -45 -27z m81 -29 c4 -17 2 -29 -7 -35 -20
-12 -29 -11 -29 4 0 6 -3 22 -6 35 -5 18 -2 22 15 22 14 0 23 -8 27 -26z"/>
</g>
</svg>
